<?xml version="1.0" encoding="UTF-8" standalone="no"?>
<svg
   width="512"
   height="512"
   viewBox="0 0 512 512"
   version="1.1"
   id="svg1"
   sodipodi:docname="reader.svg"
   inkscape:version="1.4 (86a8ad7, 2024-10-11)"
   xmlns:inkscape="http://www.inkscape.org/namespaces/inkscape"
   xmlns:sodipodi="http://sodipodi.sourceforge.net/DTD/sodipodi-0.dtd"
   xmlns="http://www.w3.org/2000/svg"
   xmlns:svg="http://www.w3.org/2000/svg">
  <defs
     id="defs1" />
  <sodipodi:namedview
     id="namedview1"
     pagecolor="#ffffff"
     bordercolor="#cccccc"
     borderopacity="1"
     inkscape:showpageshadow="0"
     inkscape:pageopacity="1"
     inkscape:pagecheckerboard="0"
     inkscape:deskcolor="#d1d1d1"
     inkscape:zoom="1.1145218"
     inkscape:cx="164.6446"
     inkscape:cy="336.01854"
     inkscape:window-width="1920"
     inkscape:window-height="1009"
     inkscape:window-x="-8"
     inkscape:window-y="-8"
     inkscape:window-maximized="1"
     inkscape:current-layer="svg1" />
  <path
     fill="#000000"
     d="M368 32H144a64.07 64.07 0 0 0-64 64v320a64.07 64.07 0 0 0 64 64h224a64.07 64.07 0 0 0 64-64V96a64.07 64.07 0 0 0-64-64ZM256 304h-80a16 16 0 0 1 0-32h80a16 16 0 0 1 0 32Zm80-80H176a16 16 0 0 1 0-32h160a16 16 0 0 1 0 32Zm0-80H176a16 16 0 0 1 0-32h160a16 16 0 0 1 0 32Z"
     id="path1"
     style="fill:#ffffff;fill-opacity:1" />
</svg>
