<?xml version="1.0" encoding="UTF-8" standalone="no"?>
<svg
   width="512"
   height="512"
   viewBox="0 0 24 24"
   version="1.1"
   id="svg1"
   sodipodi:docname="useradd.svg"
   inkscape:version="1.4 (86a8ad7, 2024-10-11)"
   xmlns:inkscape="http://www.inkscape.org/namespaces/inkscape"
   xmlns:sodipodi="http://sodipodi.sourceforge.net/DTD/sodipodi-0.dtd"
   xmlns:xlink="http://www.w3.org/1999/xlink"
   xmlns="http://www.w3.org/2000/svg"
   xmlns:svg="http://www.w3.org/2000/svg">
  <defs
     id="defs1">
    <linearGradient
       id="linearGradient15"
       inkscape:collect="always">
      <stop
         style="stop-color:#00a098;stop-opacity:1;"
         offset="0"
         id="stop15" />
      <stop
         style="stop-color:#93c01e;stop-opacity:1;"
         offset="1"
         id="stop16" />
    </linearGradient>
    <linearGradient
       id="linearGradient13"
       inkscape:collect="always">
      <stop
         style="stop-color:#00a098;stop-opacity:1;"
         offset="0"
         id="stop13" />
      <stop
         style="stop-color:#93c01e;stop-opacity:1;"
         offset="1"
         id="stop14" />
    </linearGradient>
    <linearGradient
       inkscape:collect="always"
       xlink:href="#linearGradient13"
       id="linearGradient14"
       x1="8"
       y1="19.370708"
       x2="8"
       y2="4.6228123"
       gradientUnits="userSpaceOnUse"
       gradientTransform="matrix(0.97929165,0,0,0.97929165,0.16566682,0.24843327)" />
    <linearGradient
       inkscape:collect="always"
       xlink:href="#linearGradient15"
       id="linearGradient16"
       x1="20"
       y1="20.758364"
       x2="20"
       y2="3.241636"
       gradientUnits="userSpaceOnUse" />
  </defs>
  <sodipodi:namedview
     id="namedview1"
     pagecolor="#ffffff"
     bordercolor="#cccccc"
     borderopacity="1"
     inkscape:showpageshadow="0"
     inkscape:pageopacity="1"
     inkscape:pagecheckerboard="0"
     inkscape:deskcolor="#d1d1d1"
     inkscape:zoom="1.1145218"
     inkscape:cx="140.86759"
     inkscape:cy="147.59693"
     inkscape:window-width="1920"
     inkscape:window-height="1009"
     inkscape:window-x="1912"
     inkscape:window-y="-8"
     inkscape:window-maximized="1"
     inkscape:current-layer="svg1" />
  <g
     fill="none"
     id="g1"
     style="stroke:none;stroke-opacity:1">
    <path
       d="m 21,9 a 1,1 0 1 0 -2,0 v 2 h -2 a 1,1 0 1 0 0,2 h 2 v 2 a 1,1 0 1 0 2,0 v -2 h 2 a 1,1 0 1 0 0,-2 h -2 z"
       id="path3"
       style="fill:url(#linearGradient16);fill-opacity:1;stroke:none;stroke-opacity:1" />
    <path
       d="m 7.883107,3.8711485 c 4.993642,-0.1116305 7.692951,6.4498675 3.404365,9.7255265 2.296356,1.027222 3.933774,3.104232 3.933774,5.624447 0,0.498523 -0.404132,0.902656 -0.902656,0.902656 H 1.68141 c -0.4985232,0 -0.90265599,-0.404133 -0.90265571,-0.902656 0,-2.520215 1.63741751,-4.597225 3.93377361,-5.624447 C 0.69165444,10.530752 2.7778737,3.9852737 7.883107,3.8711485 Z"
       id="path1"
       style="fill:none;fill-opacity:1;stroke:url(#linearGradient14);stroke-width:1.46894;stroke-linejoin:round;stroke-dasharray:none;stroke-opacity:1"
       sodipodi:nodetypes="scscsscs" />
  </g>
</svg>
