<?xml version="1.0" encoding="UTF-8" standalone="no"?>
<svg
   width="512"
   height="512"
   viewBox="0 0 20 20"
   version="1.1"
   id="svg1"
   sodipodi:docname="form.svg"
   inkscape:version="1.4 (86a8ad7, 2024-10-11)"
   xmlns:inkscape="http://www.inkscape.org/namespaces/inkscape"
   xmlns:sodipodi="http://sodipodi.sourceforge.net/DTD/sodipodi-0.dtd"
   xmlns:xlink="http://www.w3.org/1999/xlink"
   xmlns="http://www.w3.org/2000/svg"
   xmlns:svg="http://www.w3.org/2000/svg">
  <defs
     id="defs1">
    <linearGradient
       id="linearGradient1"
       inkscape:collect="always">
      <stop
         style="stop-color:#00a098;stop-opacity:1;"
         offset="0"
         id="stop1" />
      <stop
         style="stop-color:#93c01e;stop-opacity:1;"
         offset="1"
         id="stop2" />
    </linearGradient>
    <linearGradient
       inkscape:collect="always"
       xlink:href="#linearGradient1"
       id="linearGradient2"
       x1="10"
       y1="17"
       x2="10"
       y2="3"
       gradientUnits="userSpaceOnUse" />
  </defs>
  <sodipodi:namedview
     id="namedview1"
     pagecolor="#ffffff"
     bordercolor="#cccccc"
     borderopacity="1"
     inkscape:showpageshadow="0"
     inkscape:pageopacity="1"
     inkscape:pagecheckerboard="0"
     inkscape:deskcolor="#d1d1d1"
     inkscape:zoom="1.1145218"
     inkscape:cx="153.87765"
     inkscape:cy="226.55456"
     inkscape:window-width="1920"
     inkscape:window-height="1009"
     inkscape:window-x="1912"
     inkscape:window-y="-8"
     inkscape:window-maximized="1"
     inkscape:current-layer="svg1" />
  <path
     fill="currentColor"
     d="M6.5 10a.5.5 0 1 0 0-1a.5.5 0 0 0 0 1Zm.5 3.5a.5.5 0 1 1-1 0a.5.5 0 0 1 1 0ZM3 6a3 3 0 0 1 3-3h8a3 3 0 0 1 3 3v8a3 3 0 0 1-3 3H6a3 3 0 0 1-3-3V6Zm2.5-1a.5.5 0 0 0 0 1h9a.5.5 0 0 0 0-1h-9Zm1 6a1.5 1.5 0 1 0 0-3a1.5 1.5 0 0 0 0 3ZM8 13.5a1.5 1.5 0 1 0-3 0a1.5 1.5 0 0 0 3 0Zm1-4a.5.5 0 0 0 .5.5h5a.5.5 0 0 0 0-1h-5a.5.5 0 0 0-.5.5Zm.5 3.5a.5.5 0 0 0 0 1h5a.5.5 0 0 0 0-1h-5Z"
     id="path1"
     style="fill:url(#linearGradient2)" />
</svg>
