<?xml version="1.0" encoding="UTF-8" standalone="no"?>
<svg
   width="512"
   height="512"
   viewBox="0 0 24 24"
   version="1.1"
   id="svg1"
   sodipodi:docname="list.svg"
   inkscape:version="1.4 (86a8ad7, 2024-10-11)"
   xmlns:inkscape="http://www.inkscape.org/namespaces/inkscape"
   xmlns:sodipodi="http://sodipodi.sourceforge.net/DTD/sodipodi-0.dtd"
   xmlns:xlink="http://www.w3.org/1999/xlink"
   xmlns="http://www.w3.org/2000/svg"
   xmlns:svg="http://www.w3.org/2000/svg">
  <defs
     id="defs1">
    <linearGradient
       id="linearGradient1"
       inkscape:collect="always">
      <stop
         style="stop-color:#00a098;stop-opacity:1;"
         offset="0"
         id="stop1" />
      <stop
         style="stop-color:#93c01e;stop-opacity:1;"
         offset="1"
         id="stop2" />
    </linearGradient>
    <linearGradient
       inkscape:collect="always"
       xlink:href="#linearGradient1"
       id="linearGradient2"
       x1="12"
       y1="21.000002"
       x2="12"
       y2="2.9999981"
       gradientUnits="userSpaceOnUse" />
  </defs>
  <sodipodi:namedview
     id="namedview1"
     pagecolor="#ffffff"
     bordercolor="#cccccc"
     borderopacity="1"
     inkscape:showpageshadow="0"
     inkscape:pageopacity="1"
     inkscape:pagecheckerboard="0"
     inkscape:deskcolor="#d1d1d1"
     inkscape:zoom="1.5761719"
     inkscape:cx="256"
     inkscape:cy="256"
     inkscape:window-width="1920"
     inkscape:window-height="1009"
     inkscape:window-x="-8"
     inkscape:window-y="-8"
     inkscape:window-maximized="1"
     inkscape:current-layer="svg1" />
  <path
     fill="#000000"
     d="M8 17q.425 0 .713-.288T9 16q0-.425-.288-.713T8 15q-.425 0-.713.288T7 16q0 .425.288.713T8 17Zm0-4q.425 0 .713-.288T9 12q0-.425-.288-.713T8 11q-.425 0-.713.288T7 12q0 .425.288.713T8 13Zm0-4q.425 0 .713-.288T9 8q0-.425-.288-.713T8 7q-.425 0-.713.288T7 8q0 .425.288.713T8 9Zm3 8h6v-2h-6v2Zm0-4h6v-2h-6v2Zm0-4h6V7h-6v2ZM5 21q-.825 0-1.413-.588T3 19V5q0-.825.588-1.413T5 3h14q.825 0 1.413.588T21 5v14q0 .825-.588 1.413T19 21H5Z"
     id="path1"
     style="fill:url(#linearGradient2)" />
</svg>
